# Blender 4.2.1 LTS
# www.blender.org
mtllib wheel.mtl
o Wheel6-4
v 0.109236 0.393912 -0.000000
v -0.065662 0.393912 -0.000000
v 0.109236 0.301754 -0.253202
v -0.065662 0.301754 -0.253202
v 0.109236 0.068402 -0.387928
v -0.065662 0.068402 -0.387928
v 0.109236 -0.196956 -0.341138
v -0.065662 -0.196956 -0.341138
v 0.109236 -0.370156 -0.134726
v -0.065662 -0.370156 -0.134726
v 0.109236 -0.370156 0.134726
v -0.065662 -0.370156 0.134726
v 0.109236 -0.196956 0.341138
v -0.065662 -0.196956 0.341138
v 0.109236 0.068402 0.387927
v -0.065662 0.068402 0.387927
v 0.109236 0.301754 0.253202
v -0.065662 0.301754 0.253202
v -0.140850 0.239991 -0.201376
v -0.140850 0.313286 -0.000000
v -0.140850 0.054401 -0.308526
v -0.140850 -0.156643 -0.271313
v -0.140851 -0.294392 -0.107150
v -0.140851 -0.294392 0.107150
v -0.140851 -0.156643 0.271313
v -0.140850 0.054401 0.308526
v -0.140850 0.239991 0.201376
v -0.120034 0.200811 -0.168500
v -0.120034 0.262140 -0.000000
v -0.120034 0.045520 -0.258157
v -0.120034 -0.131070 -0.227020
v -0.120034 -0.246331 -0.089657
v -0.120034 -0.246331 0.089657
v -0.120034 -0.131070 0.227020
v -0.120034 0.045520 0.258157
v -0.120034 0.200811 0.168500
v -0.096189 0.081774 -0.068616
v -0.096189 0.106748 -0.000000
v -0.096189 0.018537 -0.105126
v -0.096189 -0.053374 -0.092447
v -0.096189 -0.100311 -0.036510
v -0.096189 -0.100310 0.036510
v -0.096189 -0.053374 0.092447
v -0.096189 0.018537 0.105126
v -0.096189 0.081774 0.068616
v -0.065739 0.200811 -0.168500
v -0.065740 0.262140 -0.000000
v -0.065740 0.045520 -0.258157
v -0.065740 -0.131070 -0.227020
v -0.065740 -0.246331 -0.089657
v -0.065740 -0.246331 0.089657
v -0.065740 -0.131070 0.227020
v -0.065740 0.045520 0.258157
v -0.065740 0.200811 0.168500
v -0.065740 0.099569 -0.083549
v -0.065740 0.129978 -0.000000
v -0.065740 0.022571 -0.128004
v -0.065740 -0.000000 0.000000
v -0.065740 0.099569 0.083549
v -0.065740 -0.064989 -0.112565
v -0.065740 -0.122140 -0.044455
v -0.065740 -0.122140 0.044455
v -0.065740 -0.064989 0.112565
v -0.065740 0.022571 0.128004
vn -0.0000 0.9397 -0.3420
vn -0.0000 0.5000 -0.8660
vn -0.0000 -0.1736 -0.9848
vn -0.0000 -0.7660 -0.6428
vn -0.0000 -1.0000 -0.0000
vn -0.0000 -0.7660 0.6428
vn -0.0000 -0.1736 0.9848
vn -0.7098 0.3522 0.6100
vn -0.0000 0.5000 0.8660
vn -0.0000 0.9397 0.3420
vn 1.0000 -0.0000 -0.0000
vn -0.9176 0.3045 0.2555
vn -0.7098 -0.1223 0.6937
vn -0.7098 -0.5396 0.4528
vn -0.7098 -0.7044 -0.0000
vn -0.7098 -0.5396 -0.4528
vn -0.7098 0.6619 -0.2409
vn -0.7098 -0.1223 -0.6937
vn -0.7098 0.3522 -0.6100
vn -0.7098 0.6619 0.2409
vn -0.5826 -0.1411 0.8004
vn -0.9176 -0.3735 0.1359
vn -0.9176 -0.1987 -0.3442
vn -0.9176 0.3974 -0.0000
vn -0.9176 -0.1987 0.3442
vn -0.9176 -0.3735 -0.1359
vn -0.9176 0.3045 -0.2555
vn -0.9176 0.0690 0.3914
vn -0.9176 0.0690 -0.3914
vn -1.0000 -0.0000 -0.0000
vn -0.0000 -0.5000 0.8660
vn -0.5826 -0.6226 0.5224
vn -0.0000 -0.9397 -0.3420
vn -0.0000 -0.9397 0.3420
vn -0.5826 -0.8127 -0.0000
vn -0.0000 -0.5000 -0.8660
vn -0.5826 -0.6226 -0.5224
vn -0.0000 0.1736 -0.9848
vn -0.0000 0.1736 0.9848
vn -0.5826 0.4064 0.7038
vn -0.0000 0.7660 0.6428
vn -0.5826 0.7637 -0.2780
vn -0.5826 0.7637 0.2780
vn -0.0000 1.0000 -0.0000
vn -0.5826 0.4064 -0.7038
vn -0.0000 0.7660 -0.6428
vn -0.5826 -0.1411 -0.8004
vt 0.621399 0.890444
vt 0.874039 0.887163
s 0
usemtl CarRubber
f 3/1/1 2/1/1 1/1/1
f 3/1/2 6/1/2 4/1/2
f 7/1/3 6/1/3 5/1/3
f 9/1/4 8/1/4 7/1/4
f 11/1/5 10/1/5 9/1/5
f 13/1/6 12/1/6 11/1/6
f 15/1/7 14/1/7 13/1/7
f 27/1/8 16/1/8 18/1/8
f 17/1/9 16/1/9 15/1/9
f 1/1/10 18/1/10 17/1/10
f 17/1/11 9/1/11 5/1/11
f 32/1/12 22/1/12 23/1/12
f 26/1/13 14/1/13 16/1/13
f 25/1/14 12/1/14 14/1/14
f 24/1/15 10/1/15 12/1/15
f 10/1/16 22/1/16 8/1/16
f 19/1/17 2/1/17 4/1/17
f 22/1/18 6/1/18 8/1/18
f 21/1/19 4/1/19 6/1/19
f 20/1/20 18/1/20 2/1/20
f 19/1/22 29/1/22 20/1/22
f 36/1/23 26/1/23 27/1/23
f 33/1/24 23/1/24 24/1/24
f 30/1/25 19/1/25 21/1/25
f 20/1/26 36/1/26 27/1/26
f 34/1/27 24/1/27 25/1/27
f 22/1/28 30/1/28 21/1/28
f 35/1/29 25/1/29 26/1/29
f 30/1/31 46/1/31 28/1/31
f 47/1/33 36/1/33 29/1/33
f 46/1/34 29/1/34 28/1/34
f 54/1/36 35/1/36 36/1/36
f 35/1/38 52/1/38 34/1/38
f 49/1/39 30/1/39 31/1/39
f 50/1/41 31/1/41 32/1/41
f 51/1/44 32/1/44 33/1/44
f 52/1/46 33/1/46 34/1/46
f 3/1/1 4/1/1 2/1/1
f 3/1/2 5/1/2 6/1/2
f 7/1/3 8/1/3 6/1/3
f 9/1/4 10/1/4 8/1/4
f 11/1/5 12/1/5 10/1/5
f 13/1/6 14/1/6 12/1/6
f 15/1/7 16/1/7 14/1/7
f 27/1/8 26/1/8 16/1/8
f 17/1/9 18/1/9 16/1/9
f 1/1/10 2/1/10 18/1/10
f 3/1/11 1/1/11 17/1/11
f 17/1/11 15/1/11 13/1/11
f 13/1/11 11/1/11 9/1/11
f 9/1/11 7/1/11 5/1/11
f 5/1/11 3/1/11 17/1/11
f 17/1/11 13/1/11 9/1/11
f 32/1/12 31/1/12 22/1/12
f 26/1/13 25/1/13 14/1/13
f 25/1/14 24/1/14 12/1/14
f 24/1/15 23/1/15 10/1/15
f 10/1/16 23/1/16 22/1/16
f 19/1/17 20/1/17 2/1/17
f 22/1/18 21/1/18 6/1/18
f 21/1/19 19/1/19 4/1/19
f 20/1/20 27/1/20 18/1/20
f 19/1/22 28/1/22 29/1/22
f 36/1/23 35/1/23 26/1/23
f 33/1/24 32/1/24 23/1/24
f 30/1/25 28/1/25 19/1/25
f 20/1/26 29/1/26 36/1/26
f 34/1/27 33/1/27 24/1/27
f 22/1/28 31/1/28 30/1/28
f 35/1/29 34/1/29 25/1/29
f 30/1/31 48/1/31 46/1/31
f 47/1/33 54/1/33 36/1/33
f 46/1/34 47/1/34 29/1/34
f 54/1/36 53/1/36 35/1/36
f 35/1/38 53/1/38 52/1/38
f 49/1/39 48/1/39 30/1/39
f 50/1/41 49/1/41 31/1/41
f 51/1/44 50/1/44 32/1/44
f 52/1/46 51/1/46 33/1/46
usemtl CarPaint
f 63/2/21 44/2/21 43/2/21
f 39/2/30 43/2/30 45/2/30
f 42/2/32 63/2/32 43/2/32
f 41/2/35 62/2/35 42/2/35
f 60/2/37 41/2/37 40/2/37
f 46/2/30 58/2/30 47/2/30
f 54/2/30 58/2/30 53/2/30
f 51/2/30 58/2/30 50/2/30
f 48/2/30 58/2/30 46/2/30
f 47/2/30 58/2/30 54/2/30
f 52/2/30 58/2/30 51/2/30
f 49/2/30 58/2/30 48/2/30
f 53/2/30 58/2/30 52/2/30
f 50/2/30 58/2/30 49/2/30
f 44/2/40 59/2/40 45/2/40
f 56/2/42 37/2/42 38/2/42
f 59/2/43 38/2/43 45/2/43
f 55/2/45 39/2/45 37/2/45
f 57/2/47 40/2/47 39/2/47
f 63/2/21 64/2/21 44/2/21
f 38/2/30 37/2/30 39/2/30
f 39/2/30 40/2/30 41/2/30
f 41/2/30 42/2/30 43/2/30
f 43/2/30 44/2/30 45/2/30
f 45/2/30 38/2/30 39/2/30
f 39/2/30 41/2/30 43/2/30
f 42/2/32 62/2/32 63/2/32
f 41/2/35 61/2/35 62/2/35
f 60/2/37 61/2/37 41/2/37
f 44/2/40 64/2/40 59/2/40
f 56/2/42 55/2/42 37/2/42
f 59/2/43 56/2/43 38/2/43
f 55/2/45 57/2/45 39/2/45
f 57/2/47 60/2/47 40/2/47
